<?xml version="1.0" encoding="UTF-8"?>
<svg width="165px" height="17px" viewBox="0 0 165 17" version="1.1" xmlns="http://www.w3.org/2000/svg" xmlns:xlink="http://www.w3.org/1999/xlink">
    <!-- Generator: Sketch 63.1 (92452) - https://sketch.com -->
    <title>logo</title>
    <desc>Created with Sketch.</desc>
    <g id="Page-1" stroke="none" stroke-width="1" fill="none" fill-rule="evenodd">
        <g id="01-webinars-main" transform="translate(-567.000000, -15.000000)" fill="#FFFFFF">
            <g id="header">
                <g id="logo" transform="translate(567.000000, 15.000000)">
                    <g id="Group">
                        <g transform="translate(69.820359, 2.964072)" fill-rule="nonzero">
                            <path d="M44.5269461,0.296407186 L29.8053892,0.296407186 L29.8053892,0.296407186 L26.0179641,10.7035928 L26.0179641,10.7035928 L28.8832335,10.7035928 L28.8832335,10.7035928 L31.748503,2.7994012 L31.748503,2.7994012 L35.3383234,2.7994012 C35.7335329,2.7994012 35.9311377,3.12874251 35.7994012,3.5239521 L33.1976048,10.7035928 L33.1976048,10.7035928 L36.0628743,10.7035928 L36.0628743,10.7035928 L38.6646707,3.5239521 C38.7964072,3.12874251 39.257485,2.7994012 39.6526946,2.7994012 L42.5179641,2.7994012 C42.9131737,2.7994012 43.1107784,3.12874251 42.9790419,3.5239521 L40.3772455,10.7035928 L40.3772455,10.7035928 L43.242515,10.7035928 L43.242515,10.7035928 L46.239521,2.43712575 C46.6676647,1.28443114 45.9101796,0.296407186 44.5269461,0.296407186 Z" id="Shape"></path>
                            <path d="M64.5508982,7.50898204 C64.4191617,7.90419162 63.9580838,8.23353293 63.5628743,8.23353293 L63.5628743,8.23353293 L59.9730539,8.23353293 C59.5778443,8.23353293 59.3802395,7.90419162 59.511976,7.50898204 L62.1137725,0.329341317 L62.1137725,0.329341317 L59.248503,0.329341317 L59.248503,0.329341317 L56.251497,8.56287425 C55.8233533,9.74850299 56.5808383,10.7035928 57.997006,10.7035928 L64.4520958,10.7035928 C65.4401198,10.7035928 66.494012,10.0449102 66.757485,9.25449102 L70.0179641,0.263473054 L70.0179641,0.263473054 L67.1526946,0.263473054 L67.1526946,0.263473054 L64.5508982,7.50898204 Z" id="Shape"></path>
                            <path d="M16.7305389,7.50898204 L16.994012,6.78443114 L16.994012,6.78443114 L25.6227545,6.78443114 L25.6227545,6.78443114 L26.5449102,4.28143713 L27.2035928,2.47005988 C27.6317365,1.28443114 26.8742515,0.329341317 25.4580838,0.329341317 L18.2784431,0.329341317 C17.2904192,0.329341317 16.2365269,0.988023952 15.9730539,1.77844311 L15.9730539,1.77844311 L13.4700599,8.56287425 C13.0419162,9.74850299 13.7994012,10.7035928 15.2155689,10.7035928 L24.2065868,10.7035928 L24.2065868,10.7035928 L25.1287425,8.2005988 L25.1287425,8.2005988 L17.2245509,8.2005988 C16.7964072,8.2005988 16.5988024,7.90419162 16.7305389,7.50898204 Z M18.1796407,3.55688623 C18.3113772,3.16167665 18.7724551,2.83233533 19.1676647,2.83233533 L23.4820359,2.83233533 C23.8772455,2.83233533 24.0748503,3.16167665 23.9431138,3.55688623 L23.6796407,4.28143713 L23.6796407,4.28143713 L17.9161677,4.28143713 L17.9161677,4.28143713 L18.1796407,3.55688623 Z" id="Shape"></path>
                            <polygon id="Shape" points="92.3143713 0.296407186 90.8652695 4.24850299 90.8652695 4.24850299 85.8263473 4.24850299 85.8263473 4.24850299 87.2754491 0.296407186 87.2754491 0.296407186 84.4101796 0.296407186 84.4101796 0.296407186 80.6227545 10.7365269 80.6227545 10.7365269 83.488024 10.7365269 83.488024 10.7365269 84.9041916 6.78443114 84.9041916 6.78443114 89.9431138 6.78443114 89.9431138 6.78443114 88.5269461 10.7365269 88.5269461 10.7365269 91.3922156 10.7365269 91.3922156 10.7365269 95.1796407 0.296407186 95.1796407 0.296407186"></polygon>
                            <path d="M48.3143713,1.74550898 L45.0538922,10.7365269 L45.0538922,10.7365269 L47.9191617,10.7365269 L47.9191617,10.7365269 L50.5209581,3.55688623 C50.6526946,3.16167665 51.1137725,2.83233533 51.508982,2.83233533 L56.5479042,2.83233533 L56.5479042,2.83233533 L57.4700599,0.329341317 L57.4700599,0.329341317 L50.6526946,0.329341317 C49.6317365,0.296407186 48.5778443,0.95508982 48.3143713,1.74550898 Z" id="Shape"></path>
                            <path d="M3.39221557,1.74550898 L3.39221557,1.74550898 L2.33832335,4.61077844 C1.91017964,5.79640719 2.66766467,6.75149701 4.08383234,6.75149701 L8.76047904,6.75149701 L8.76047904,6.75149701 C9.15568862,6.75149701 9.35329341,7.08083832 9.22155689,7.4760479 L9.22155689,7.4760479 C9.08982036,7.87125749 8.62874251,8.2005988 8.23353293,8.2005988 L1.05389222,8.2005988 L1.05389222,8.2005988 L0.131736527,10.7035928 L0.131736527,10.7035928 L9.12275449,10.7035928 C10.1107784,10.7035928 11.1646707,10.0449102 11.4281437,9.25449102 L12.4820359,6.38922156 C12.9101796,5.20359281 12.1526946,4.24850299 10.7365269,4.24850299 L6.05988024,4.24850299 C5.66467066,4.24850299 5.46706587,3.91916168 5.5988024,3.5239521 L5.5988024,3.5239521 C5.73053892,3.12874251 6.19161677,2.7994012 6.58682635,2.7994012 L13.7664671,2.7994012 L13.7664671,2.7994012 L14.6886228,0.296407186 L14.6886228,0.296407186 L5.69760479,0.296407186 C4.70958084,0.296407186 3.68862275,0.95508982 3.39221557,1.74550898 Z" id="Shape"></path>
                            <path d="M71.3023952,1.74550898 L71.3023952,1.74550898 L70.248503,4.61077844 C69.8203593,5.79640719 70.5778443,6.75149701 71.994012,6.75149701 L76.6706587,6.75149701 L76.6706587,6.75149701 C77.0658683,6.75149701 77.2634731,7.08083832 77.1317365,7.4760479 L77.1317365,7.4760479 C77,7.87125749 76.5389222,8.2005988 76.1437126,8.2005988 L68.9640719,8.2005988 L68.9640719,8.2005988 L68.0419162,10.7035928 L68.0419162,10.7035928 L77.0329341,10.7035928 C78.0209581,10.7035928 79.0748503,10.0449102 79.3383234,9.25449102 L80.3922156,6.38922156 C80.8203593,5.20359281 80.0628743,4.24850299 78.6467066,4.24850299 L73.9700599,4.24850299 C73.5748503,4.24850299 73.3772455,3.91916168 73.508982,3.5239521 L73.508982,3.5239521 C73.6407186,3.12874251 74.1017964,2.7994012 74.497006,2.7994012 L81.6766467,2.7994012 L81.6766467,2.7994012 L82.5988024,0.296407186 L82.5988024,0.296407186 L73.6077844,0.296407186 C72.6197605,0.296407186 71.5988024,0.95508982 71.3023952,1.74550898 Z" id="Shape"></path>
                        </g>
                        <g fill-rule="nonzero">
                            <path d="M52.991018,0.55988024 C56.5479042,-0.0988023952 59.3473054,0.625748503 61.3892216,2.76646707 C62.9700599,4.38023952 63.7934132,6.32335329 63.8263473,8.59580838 C63.8592814,11 62.8712575,13.0748503 60.7634731,14.8203593 C58.3922156,16.7634731 55.6586826,17.1586826 52.5299401,16.005988 C49.5988024,14.9191617 46.9311377,14.0958084 43.0778443,14.0958084 C39.2245509,14.0958084 35.239521,14.6886228 35.239521,14.6886228 C36.1287425,13.9311377 38.9281437,12.9101796 40.4431138,12.3173653 C41.1017964,12.0868263 41.7934132,11.8562874 42.3203593,11.6257485 C42.9790419,11.3293413 43.4071856,11.0658683 43.1437126,10.7365269 C42.7155689,10.1437126 40.5748503,10.7035928 39.9820359,10.8682635 C38.5988024,11.2634731 37.3143713,11.6916168 34.251497,12.9760479 C31.6497006,14.0958084 28.3562874,14.5568862 25.260479,14.7215569 C22.1976048,14.8203593 19.5299401,13.8323353 18.1137725,12.4161677 C20.9790419,13.1077844 22.4610778,13.6347305 25.5239521,13.0748503 C26.1167665,12.9760479 28.2904192,12.0868263 27.9610778,11.5598802 C27.5,10.8353293 25.1616766,13.008982 18.3772455,10.6047904 C16.2035928,9.81437126 13.8652695,8.2994012 6.88323353,8.85928144 C5.5988024,8.95808383 2.63473054,9.48502994 0.296407186,8.79341317 C5.00598802,6.9491018 8.76047904,6.02694611 10.7365269,5.66467066 C14.4580838,4.94011976 17.2904192,5.36826347 19.2005988,6.09281437 C18.3772455,4.70958084 16.2365269,3.58982036 16.2365269,3.58982036 C17.3562874,3.75449102 18.8053892,4.08383234 20.1227545,4.7754491 C21.4401198,5.46706587 24.1736527,8.06886228 28.1586826,9.12275449 C30.2335329,9.68263473 32.5718563,10.0778443 35.8323353,9.74850299 C37.4131737,9.58383234 37.7095808,9.58383234 38.5658683,9.41916168 C39.7185629,9.18862275 40.5748503,8.36526946 40.3443114,7.70658683 C40.1137725,7.04790419 39.257485,6.71856287 38.3023952,6.9491018 C37.3143713,7.17964072 34.4491018,8.85928144 30.2005988,8.00299401 C25.9520958,7.14670659 23.8772455,3.49101796 19.9580838,2.66766467 C24.4041916,1.9760479 27.005988,4.57784431 30.0688623,5.43413174 C32.2095808,6.02694611 35.6676647,5.89520958 37.5449102,5.5 C38.3023952,5.33532934 38.6976048,5.07185629 37.9071856,4.70958084 C37.1167665,4.34730539 32.4730539,3.68862275 28.257485,3.5239521 C31.1556886,2.10778443 35.6017964,3.02994012 35.6017964,3.02994012 C34.5808383,2.00898204 32.2754491,1.51497006 32.2754491,1.51497006 C35.0748503,1.21856287 37.8742515,1.25149701 39.8832335,2.43712575 C41.7275449,3.49101796 42.1886228,4.08383234 43.2095808,4.84131737 C43.505988,5.07185629 44.5928144,5.99401198 45.2844311,4.90718563 C45.9101796,3.95209581 44.5269461,3.35928144 43.505988,2.99700599 C42.4191617,2.60179641 41.4640719,1.91017964 40.8383234,0.922155689 C41.991018,1.18562874 43.3413174,1.67964072 44.9550898,1.64670659 C48.742515,1.58083832 52.991018,0.55988024 52.991018,0.55988024 Z M55.8892216,1.94311377 C52.2664671,1.94311377 49.3023952,4.90718563 49.3023952,8.52994012 C49.3023952,12.1526946 52.2335329,15.1167665 55.8892216,15.1167665 C59.5449102,15.1167665 62.4760479,12.1526946 62.4760479,8.52994012 C62.4760479,4.90718563 59.511976,1.94311377 55.8892216,1.94311377 Z" id="Shape"></path>
                            <path d="M55.8892216,3.32634731 C53.0239521,3.32634731 50.6856287,5.66467066 50.6856287,8.52994012 C50.6856287,11.3952096 53.0239521,13.7335329 55.8892216,13.7335329 C58.754491,13.7335329 61.0928144,11.3952096 61.0928144,8.52994012 C61.0928144,5.63173653 58.7874251,3.32634731 55.8892216,3.32634731 Z M58.3263473,11.988024 C58.9191617,11.2305389 59.248503,10.3083832 59.248503,9.28742515 C59.248503,7.17964072 57.7335329,5.4011976 55.7245509,5.00598802 C55.9221557,4.74251497 56.1197605,4.51197605 56.3502994,4.28143713 C58.3922156,4.64371257 59.9730539,6.42215569 59.9730539,8.56287425 C59.9730539,9.94610778 59.3143713,11.1646707 58.3263473,11.988024 Z" id="Shape"></path>
                        </g>
                    </g>
                </g>
            </g>
        </g>
    </g>
</svg>